<?xml version="1.0" standalone="no"?><!DOCTYPE svg PUBLIC "-//W3C//DTD SVG 1.1//EN" "http://www.w3.org/Graphics/SVG/1.1/DTD/svg11.dtd"><svg t="1558583893055" class="icon" style="" viewBox="0 0 1024 1024" version="1.1" xmlns="http://www.w3.org/2000/svg" p-id="1018" xmlns:xlink="http://www.w3.org/1999/xlink" width="200" height="200"><defs><style type="text/css"></style></defs><path d="M207.25333333 268.16v609.49333333H192c-29.22666667 0-54.29333333-10.56-75.2-31.46666666S85.33333333 800.21333333 85.33333333 771.09333333V374.82666667c0-29.22666667 10.56-54.29333333 31.46666667-75.2s46.08-31.46666667 75.2-31.46666667h15.25333333z m563.84 0v609.49333333H252.90666667V268.16h76.26666666v-76.26666667c0-12.69333333 4.37333333-23.46666667 13.33333334-32.32 8.96-8.96 19.73333333-13.33333333 32.32-13.33333333h274.34666666c12.69333333 0 23.46666667 4.37333333 32.32 13.33333333 8.96 8.96 13.33333333 19.73333333 13.33333334 32.32v76.26666667h76.26666666zM694.93333333 618.66666667v-91.30666667c0-4.37333333-1.38666667-8.10666667-4.26666666-10.88-2.88-2.77333333-6.50666667-4.26666667-10.88-4.26666667h-106.66666667V405.33333333c0-4.37333333-1.38666667-8.10666667-4.26666667-10.88-2.88-2.88-6.50666667-4.26666667-10.88-4.26666666h-91.41333333c-4.37333333 0-8.10666667 1.38666667-10.88 4.26666666-2.88 2.88-4.26666667 6.50666667-4.26666667 10.88v106.66666667H344.42666667c-4.37333333 0-8.10666667 1.38666667-10.88 4.26666667-2.88 2.88-4.26666667 6.50666667-4.26666667 10.88V618.66666667c0 4.37333333 1.38666667 8.10666667 4.26666667 10.88 2.88 2.88 6.50666667 4.26666667 10.88 4.26666666h106.66666666v106.77333334c0 4.37333333 1.38666667 8.10666667 4.26666667 10.88 2.88 2.88 6.50666667 4.26666667 10.88 4.26666666h91.41333333c4.37333333 0 8.10666667-1.38666667 10.88-4.26666666 2.88-2.88 4.26666667-6.50666667 4.26666667-10.88v-106.66666667h106.66666667c4.37333333 0 8.10666667-1.38666667 10.88-4.26666667 2.98666667-2.88 4.58666667-6.50666667 4.58666666-10.98666666zM390.18666667 268.16h243.84v-61.12H390.18666667v61.12z m548.48 106.66666667v396.26666666c0 29.22666667-10.56 54.29333333-31.46666667 75.2s-46.08 31.46666667-75.2 31.46666667h-15.14666667V268.16H832c29.22666667 0 54.29333333 10.56 75.2 31.46666667 21.12 20.90666667 31.46666667 45.97333333 31.46666667 75.2z" p-id="1019"></path></svg>