<?xml version="1.0" standalone="no"?><!DOCTYPE svg PUBLIC "-//W3C//DTD SVG 1.1//EN" "http://www.w3.org/Graphics/SVG/1.1/DTD/svg11.dtd"><svg t="1558590478247" class="icon" style="" viewBox="0 0 1024 1024" version="1.1" xmlns="http://www.w3.org/2000/svg" p-id="1115" xmlns:xlink="http://www.w3.org/1999/xlink" width="200" height="200"><defs><style type="text/css"></style></defs><path d="M377.9 350c-7.65-7.2-19.8-7.2-27 0.45-7.2 7.65-7.2 19.35 0 26.55l58.95 58.95H218.6c-10.35 0-19.35 8.55-19.35 19.35s8.55 19.35 19.35 19.35h191.25l-58.95 58.95c-7.65 7.2-8.1 19.35-0.45 27s19.35 8.1 27 0.45l0.45-0.45 91.8-91.8c7.65-7.65 7.65-19.8 0-27L377.9 350z" p-id="1116"></path><path d="M794.15 111.5H323c-10.35 0-18.9 8.55-18.9 18.9v281.7h26.1c-7.65-9.9-12.15-22.05-12.15-35.1 0-18.45 9-35.55 23.85-46.35V149.3h433.35v13.5l-198 143.55V921.5l198.9-144.45c3.15 9.9 13.95 15.3 23.85 11.7 7.65-2.7 13.05-9.9 12.6-18V130.4c0.45-10.35-8.1-18.9-18.45-18.9z m-26.55 605.25l-155.25 112.5V336.5l155.25-112.95v493.2z" p-id="1117"></path><path d="M769.4 198.8L593 332.45l2.7 543.15 190.8-135.45-17.1-541.35z m-98.1 382.05c-9 0-16.2-10.8-18-25.65h-21.15V539h21.6c2.25-13.95 9.45-23.85 18-23.85 10.35 0 18.45 14.85 18.45 32.85-0.45 18-8.55 32.85-18.9 32.85zM330.2 516.05h-26.1v245.25c0 10.35 8.55 18.9 18.9 18.9 10.35 0 18.9-8.55 18.9-18.9V597.5c-2.7-1.8-4.95-3.6-7.2-5.85-20.25-20.7-22.05-52.65-4.5-75.6z" p-id="1118"></path></svg>