<?xml version="1.0" standalone="no"?><!DOCTYPE svg PUBLIC "-//W3C//DTD SVG 1.1//EN" "http://www.w3.org/Graphics/SVG/1.1/DTD/svg11.dtd"><svg t="1558583982515" class="icon" style="" viewBox="0 0 1024 1024" version="1.1" xmlns="http://www.w3.org/2000/svg" p-id="1020" xmlns:xlink="http://www.w3.org/1999/xlink" width="200" height="200"><defs><style type="text/css"></style></defs><path d="M357.89816415 261.58451675c-38.52545897 11.80618903-68.97299911 38.52545897-93.20675556 71.45851258-2.48551348 3.72827022-6.83516208 9.32067555-9.32067556 14.91308089h316.28159052c-3.72827022-8.07791882-9.32067555-16.15583763-14.91308088-22.36962133-23.61237808-29.20478341-58.40956682-47.84613452-103.77018785-64.00197214V183.29084208c3.72827022-3.72827022 6.83516208-8.07791882 9.32067555-11.80618905h13.04894578c5.59240533 0 8.07791882-3.72827022 8.07791882-8.07791881v-10.5634323c27.96202667-8.07791882 58.40956682-11.80618903 85.12883673-3.72827022 16.15583763 3.72827022 30.44754015 11.80618903 41.01097245 23.61237808 10.5634323 13.04894578 14.91308089 29.20478341 16.15583763 45.36062104 1.24275675 21.12686459-1.24275675 42.25372918-3.72827023 64.00197215-2.48551348 23.61237808-1.24275675 47.84613452-1.24275673 73.3226477 1.24275675 46.60337778 5.59240533 96.93502578 23.61237807 141.05289008 9.32067555 22.36962133 22.36962133 44.1178643 37.28270222 64.00197214l-5.59240533 5.59240533-14.91308089 14.91308089 24.23375644 30.44754014c47.22475615 21.12686459 83.88608 61.51645867 100.04191764 110.60534993l76.42953955-70.83713421-138.5673766-129.24670105-19.88410784 19.88410786c-10.5634323-13.04894578-19.88410785-27.96202667-26.71926993-44.1178643-19.88410785-41.01097245-25.47651318-87.61435022-27.96202667-132.97497126-1.24275675-23.61237808-1.24275675-49.08889125 0-73.3226477 1.24275675-21.12686459 5.59240533-42.25372918 3.72827022-65.24472889 0-22.36962133-3.72827022-44.1178643-16.15583762-62.13783704-11.80618903-17.39859437-30.44754015-31.69029689-50.331648-38.52545896-32.93305363-10.5634323-67.73024237-9.32067555-100.663296 0v-1.24275674c0-5.59240533-3.72827022-8.07791882-8.07791883-8.07791881h-8.0779188c-9.32067555-25.47651318-32.93305363-44.1178643-60.8950803-44.1178643-25.47651318 0-46.60337778 14.91308089-58.40956682 34.79718874-37.28270222 0-108.74121482 0-163.42251141-2.48551349-10.5634323-1.24275675-10.5634323 0-16.15583762 5.59240534-5.59240533 6.83516208-5.59240533 29.20478341-1.24275675 32.93305363 1.24275675 1.24275675 3.72827022 2.48551348 6.83516208 2.48551348 0 0 25.47651318-9.32067555 148.50943052-9.32067556 3.72827022 0 8.07791882 5.59240533 1.24275674 9.32067556-21.12686459 13.04894578-88.85710697 38.52545897-111.84810667 49.08889127-5.59240533 2.48551348-9.32067555 6.83516208-10.5634323 10.56343228-1.24275675 5.59240533-1.24275675 13.04894578-2.48551347 19.88410786 0 5.59240533 6.83516208 9.32067555 11.80618903 6.83516208 29.20478341-16.15583763 73.3226477-45.36062103 129.86807941-65.24472889 1.24275675 0 3.72827022-1.24275675 5.59240533-1.24275675 2.48551348 6.83516208 6.83516208 11.80618903 10.5634323 16.15583764v79.5364314h-0.62137837z" p-id="1021"></path><path d="M428.73529837 776.70718578c0-96.93502578 75.18678282-176.47145718 170.87905185-182.68524089V472.85316267c0-25.47651318-3.72827022-57.16681008-13.04894577-86.37159349H242.32178725c-8.07791882 29.20478341-13.04894578 60.8950803-13.04894577 85.12883674v349.21464416h205.05486222c-3.72827022-14.29170252-5.59240533-29.20478341-5.59240533-44.1178643zM457.31870341 874.26358992H229.27284148v37.28270223c0 10.5634323 3.72827022 18.64135111 10.5634323 26.71926993 8.07791882 8.07791882 16.15583763 10.5634323 26.71926992 10.56343229H549.28270222c-38.52545897-14.29170252-70.83713422-41.01097245-91.96399881-74.56540445z" p-id="1022"></path><path d="M612.04191763 608.93502578c-93.20675555 0-168.39353837 75.18678282-168.39353838 168.39353837s75.18678282 168.39353837 168.39353838 168.39353837c93.20675555 0 168.39353837-75.18678282 168.39353837-168.39353837s-75.18678282-168.39353837-168.39353837-168.39353837z m-31.06891852 82.64332325l8.07791881 3.10689186c-2.48551348 3.72827022-5.59240533 8.07791882-8.69929717 11.80618903h62.13783703v8.07791883l-16.15583763 18.01997273h44.73924267v57.78818844h-121.16878223v-7.45654044h112.46948504v-18.01997273h-108.74121481v-7.45654045h108.74121481v-17.39859438h-106.25570133v-7.45654044h59.65232355l16.777216-19.26272948H574.13783703c-9.32067555 10.5634323-21.12686459 21.12686459-34.79718873 31.06891852-1.86413511-1.86413511-3.72827022-4.34964859-6.21378371-6.2137837 20.50548622-13.67032415 36.03994548-29.20478341 47.84613452-46.60337779z m43.49648592 122.41153897l-7.45654044 5.59240533c-5.59240533-7.45654045-11.18481067-14.29170252-18.01997274-21.74824296l6.83516207-4.97102696c6.83516208 7.45654045 13.04894578 14.29170252 18.64135111 21.12686459z m-82.64332325 24.23375645s-0.62137837 0-0.62137837-0.62137837c-3.10689185-1.86413511-5.59240533-3.10689185-7.45654044-3.72827023 4.97102697-9.94205392 9.94205392-21.12686459 13.67032414-32.93305363l8.07791881 3.10689186c-3.72827022 12.42756741-8.69929718 23.61237808-13.67032414 34.17581037z m108.74121481-8.07791882c-2.48551348 9.94205392-9.32067555 14.29170252-21.12686459 14.29170252H592.77918815c-13.67032415 0.62137837-20.50548622-5.59240533-19.88410785-18.01997274v-24.85513482h8.69929718v23.61237808c0 4.34964859 1.24275675 7.45654045 3.10689185 9.32067555 1.86413511 1.86413511 5.59240533 2.48551348 11.18481067 2.48551348h31.06891852c9.32067555 0.62137837 14.29170252-3.10689185 15.53445926-10.56343229 0.62137837-3.72827022 1.86413511-8.69929718 2.48551347-14.91308089 3.10689185 1.24275675 5.59240533 2.48551348 8.6992972 3.10689185-0.62137837 4.97102697-1.86413511 9.94205392-3.10689186 15.53445926z m30.44754016 3.72827022c-6.83516208-9.94205392-13.04894578-19.26272948-19.2627295-27.96202667l6.83516208-4.97102696c6.83516208 9.32067555 13.67032415 18.01997275 19.88410785 27.3406483l-7.45654043 5.59240533z" p-id="1023"></path></svg>