<?xml version="1.0" standalone="no"?><!DOCTYPE svg PUBLIC "-//W3C//DTD SVG 1.1//EN" "http://www.w3.org/Graphics/SVG/1.1/DTD/svg11.dtd"><svg t="1558587927622" class="icon" style="" viewBox="0 0 1024 1024" version="1.1" xmlns="http://www.w3.org/2000/svg" p-id="1259" xmlns:xlink="http://www.w3.org/1999/xlink" width="200" height="200"><defs><style type="text/css"></style></defs><path d="M715.48070368 826.16890405c-47.05905525 0-84.83886017-38.44260851-84.83886016-86.16446735s37.77980492-86.16446736 84.17605657-86.16446737c47.05905525 0 84.83886017 38.44260851 84.83886018 86.82727097 0 47.05905525-37.77980492 85.50166377-84.17605659 85.50166375zM248.20416916 653.83996933c46.39625165 0 83.51325298 37.77980492 83.51325297 84.17605659 0 46.39625165-37.77980492 83.51325298-83.51325297 83.51325298-46.39625165 0-83.51325298-37.77980492-83.51325298-84.17605659 0-46.39625165 37.77980492-83.51325298 83.51325298-83.51325298z" p-id="1260"></path><path d="M970.66008779 571.65232355c-7.95364315-20.54691145-20.54691145-38.44260851-33.14017976-55.67550198-41.0938229-57.00110917-82.85044939-114.00221835-130.57230822-165.70089876-12.5932683-13.9188755-26.51214381-27.17494739-41.7566265-38.44260852-7.29083955-5.30242877-15.24448269-7.95364315-23.86092942-7.29083954-16.57008987 0.66280359-33.80298335 0-50.37307322 0-1.98841078 0-4.63962516 0.66280359-3.97682157-3.31401798 0.66280359-11.26766112 0.66280359-22.53532223 0-33.80298335-0.66280359-16.57008987-0.66280359-32.47737616-5.96523235-48.38466243-5.30242877-15.24448269-15.90728628-25.18653662-31.81457257-28.5005546-9.94205392-1.98841078-19.88410785-1.98841078-29.16335819-0.66280359-20.54691145 2.65121438-33.80298335 14.58167909-39.7682157 34.46578693-1.3256072 3.97682157-1.98841078 7.95364315-2.65121438 12.59326832-3.31401797 20.54691145-3.31401797 41.0938229-3.31401797 61.64073435 0 5.30242877-1.3256072 6.62803595-6.62803596 5.96523235H130.88793283c-43.74503728 0-78.21082421 34.46578693-78.21082421 78.21082422v309.5292789c0 25.84934021 6.62803595 50.37307323 17.23289348 73.57119904 1.3256072 2.65121438 2.65121438 3.31401797 5.30242875 3.31401797 7.95364315 0 15.90728628-0.66280359 23.86092942 0 4.63962516 0 4.63962516-1.3256072 3.97682158-5.30242875-3.31401797-15.90728628-2.65121438-31.81457257 0.66280359-47.05905525 12.5932683-60.31512715 48.38466243-101.40895005 108.03698599-118.64184352 58.98951997-16.57008987 111.35100397-1.3256072 153.10763047 43.74503727 31.81457257 33.80298335 43.74503728 75.55960983 37.77980492 121.9558615-0.66280359 3.31401797-0.66280359 5.30242877 3.97682156 5.30242875h159.07286282c3.31401797 0 4.63962516 0 3.97682157-3.97682157-2.65121438-17.23289347-2.65121438-35.12859054 1.3256072-52.36148401 17.89569707-81.52484219 94.7809141-132.56071902 177.63136346-117.31623632 78.21082421 14.58167909 132.56071902 91.46689612 119.9674507 169.67772033-0.66280359 3.31401797 0 3.97682157 3.31401799 3.97682157h29.82616178c42.41943008 0 75.55960983-30.48896537 78.87362781-72.90839545v-87.49007454c-1.98841078-11.93046471-5.30242877-24.52373301-9.94205392-37.11700134z m-391.71692469-12.5932683c0 43.74503728-35.79139413 79.53643141-79.5364314 79.53643142h-37.11700133c-43.74503728 0-79.53643141-35.79139413-79.5364314-79.53643142V434.45197938c0-43.74503728 35.79139413-79.53643141 79.5364314-79.53643141h37.11700133c43.74503728 0 79.53643141 35.79139413 79.5364314 79.53643141v124.60707587z m290.30797464-19.88410786c-1.98841078 0.66280359-3.31401797 0.66280359-5.30242876 0.6628036h-231.31845468c-5.30242877 0-6.62803595-1.3256072-6.62803595-6.62803595V363.5319947c0-4.63962516 0.66280359-6.62803595 5.96523235-5.96523235 23.19812583 0 45.73344805 0.66280359 68.93157389 0 11.93046471 0 23.19812583 3.31401797 33.14017976 9.94205392 20.54691145 13.2560719 37.11700133 30.48896537 51.03587681 49.71026963l83.51325297 119.30464711c0 0.66280359 1.3256072 1.3256072 0.66280361 2.65121438z" p-id="1261"></path><path d="M550.44260851 518.62803595h-23.19812582c-3.31401797 0-6.62803595-2.65121438-6.62803595-6.62803595v-43.08223369c0-3.97682157 3.31401797-6.62803595 6.62803595-6.62803594h23.19812582c3.97682157 0 6.62803595 2.65121438 6.62803595 6.62803594v43.08223369c0 3.97682157-3.31401797 6.62803595-6.62803595 6.62803595z" p-id="1262"></path></svg>