<?xml version="1.0" standalone="no"?><!DOCTYPE svg PUBLIC "-//W3C//DTD SVG 1.1//EN" "http://www.w3.org/Graphics/SVG/1.1/DTD/svg11.dtd"><svg t="1558588195503" class="icon" style="" viewBox="0 0 1024 1024" version="1.1" xmlns="http://www.w3.org/2000/svg" p-id="1368" xmlns:xlink="http://www.w3.org/1999/xlink" width="200" height="200"><defs><style type="text/css"></style></defs><path d="M918.784 684.6464c18.944-87.0912-23.3472-221.7984-91.904-344.32l-162.816 87.0912a174.17728 174.17728 0 0 1 24.832 89.9584c0 14.2336-1.7408 28.16-5.0176 41.6768l234.9056 125.5936zM338.7392 517.3248c0-32.768 9.0112-63.488 24.7296-89.7024l-161.28-86.272c-70.4512 122.9312-113.5616 257.3824-91.2384 341.7088l232.7552-124.4672c-3.2768-13.312-4.9664-27.1872-4.9664-41.2672zM383.3856 400.5888c32.0512-35.7888 78.6432-58.3168 130.4576-58.3168 51.712 0 98.2016 22.4256 130.2528 58.112l166.0416-88.832c-84.224-139.6736-200.2944-256.4096-293.4272-256.4096-92.3648 0-211.3024 117.8112-297.5744 257.6384l164.2496 87.808zM672.768 590.7968a175.08352 175.08352 0 0 1-246.4768 78.1824 174.96576 174.96576 0 0 1-71.5264-78.5408l-231.2192 123.6992c2.0992 3.6352 4.4032 7.1168 6.8608 10.3936 116.1216 154.0608 675.2768 166.912 773.3248 0 1.536-2.56 2.9184-5.2224 4.2496-7.936l-235.2128-125.7984z m-82.9952 216.5248H438.272v-5.8368h151.5008v5.8368z m0-51.8656H438.272v-5.8368h151.5008v5.8368z m0-52.4288H438.272v-5.8368h151.5008v5.8368z" p-id="1369"></path><path d="M426.2912 517.3248c0 48.3328 39.2192 87.552 87.552 87.552 48.3328 0 87.552-39.2192 87.552-87.552 0-48.3328-39.168-87.552-87.552-87.552-48.384 0-87.552 39.2192-87.552 87.552z m0 0" p-id="1370"></path><path d="M426.2912 589.7216v377.6h175.104v-377.6h-175.104z m163.4304 321.5872H437.9648v-5.8368h151.7568v5.8368z m0-51.968H437.9648v-5.8368h151.7568v5.8368z m0-51.9168H437.9648v-5.8368h151.7568v5.8368z m0-51.968H437.9648v-5.8368h151.7568v5.8368z m0-52.5312H437.9648v-5.8368h151.7568v5.8368z m0-51.9168H437.9648v-5.8368h151.7568v5.8368z" p-id="1371"></path></svg>