<?xml version="1.0" standalone="no"?><!DOCTYPE svg PUBLIC "-//W3C//DTD SVG 1.1//EN" "http://www.w3.org/Graphics/SVG/1.1/DTD/svg11.dtd"><svg t="1558584074982" class="icon" style="" viewBox="0 0 1024 1024" version="1.1" xmlns="http://www.w3.org/2000/svg" p-id="1022" xmlns:xlink="http://www.w3.org/1999/xlink" width="200" height="200"><defs><style type="text/css"></style></defs><path d="M367.52952889 277.23548445c-36.11761778 11.06830222-64.66218667 36.11761778-87.38133334 66.99235555-2.33016889 3.49525333-6.40796445 8.73813333-8.73813333 13.98101333h296.51399111c-3.49525333-7.57304889-8.73813333-15.14609778-13.98101333-20.97152-22.13660445-27.37948445-54.75896889-44.85575111-97.28455111-60.00184888V203.83516445c3.49525333-3.49525333 6.40796445-7.57304889 8.73813333-11.06830223h12.23338667c5.24288 0 7.57304889-3.49525333 7.57304889-7.57304889v-9.90321778c26.2144-7.57304889 54.75896889-11.06830222 79.80828444-3.49525333 15.14609778 3.49525333 28.54456889 11.06830222 38.44778667 22.13660445 9.90321778 12.23338667 13.98101333 27.37948445 15.14609778 42.52558222 1.16508445 19.80643555-1.16508445 39.61287111-3.49525334 60.00184889-2.33016889 22.13660445-1.16508445 44.85575111-1.16508444 68.73998222 1.16508445 43.69066667 5.24288 90.87658667 22.13660444 132.23708445 8.73813333 20.97152 20.97152 41.36049778 34.95253334 60.00184888l-5.24288 5.24288-13.98101334 13.98101334 22.71914667 28.54456888c44.27320889 19.80643555 78.6432 57.67168 93.78929778 103.69251556l71.65269333-66.40981333-129.90691556-121.16878223-18.6413511 18.64135112c-9.90321778-12.23338667-18.64135111-26.2144-25.04931556-41.36049778-18.64135111-38.44778667-23.88423111-82.13845333-26.2144-124.66403556-1.16508445-22.13660445-1.16508445-46.02083555 0-68.73998222 1.16508445-19.80643555 5.24288-39.61287111 3.49525333-61.16693333 0-20.97152-3.49525333-41.36049778-15.14609777-58.25422223-11.06830222-16.31118222-28.54456889-29.70965333-47.18592-36.11761777-30.87473778-9.90321778-63.49710222-8.73813333-94.37184 0v-1.16508445c0-5.24288-3.49525333-7.57304889-7.5730489-7.57304888h-7.57304888c-8.73813333-23.88423111-30.87473778-41.36049778-57.08913778-41.36049778-23.88423111 0-43.69066667 13.98101333-54.75896889 32.62236444-34.95253333 0-101.94488889 0-153.20860445-2.33016889-9.90321778-1.16508445-9.90321778 0-15.14609777 5.24288-5.24288 6.40796445-5.24288 27.37948445-1.16508445 30.87473778 1.16508445 1.16508445 3.49525333 2.33016889 6.40796445 2.33016889 0 0 23.88423111-8.73813333 139.22759111-8.73813334 3.49525333 0 7.57304889 5.24288 1.16508444 8.73813334-19.80643555 12.23338667-83.30353778 36.11761778-104.8576 46.02083556-5.24288 2.33016889-8.73813333 6.40796445-9.90321778 9.90321777-1.16508445 5.24288-1.16508445 12.23338667-2.33016888 18.64135111 0 5.24288 6.40796445 8.73813333 11.06830222 6.40796445 27.37948445-15.14609778 68.73998222-42.52558222 121.75132444-61.16693333 1.16508445 0 3.49525333-1.16508445 5.24288-1.16508445 2.33016889 6.40796445 6.40796445 11.06830222 9.90321778 15.14609778v74.56540444h-0.58254222z" p-id="1023"></path><path d="M433.93934222 760.16298667c0-90.87658667 70.48760889-165.44199111 160.19911111-171.26741334V475.29984c0-23.88423111-3.49525333-53.59388445-12.23338666-80.97336889H259.17667555c-7.57304889 27.37948445-12.23338667 57.08913778-12.23338666 79.80828444v327.3887289h192.23893333c-3.49525333-13.39847111-5.24288-27.37948445-5.24288-41.36049778zM460.73628445 851.62211555H246.94328889v34.95253334c0 9.90321778 3.49525333 17.47626667 9.90321778 25.04931556 7.57304889 7.57304889 15.14609778 9.90321778 25.04931555 9.90321777H546.95253333c-36.11761778-13.39847111-66.40981333-38.44778667-86.21624888-69.90506667zM621.51793778 699.57859555h37.28270222v25.04931556h-37.28270222z" p-id="1024"></path><path d="M605.78929778 602.87658667c-87.38133333 0-157.86894222 70.48760889-157.86894223 157.86894222s70.48760889 157.86894222 157.86894223 157.86894222c87.38133333 0 157.86894222-70.48760889 157.86894222-157.86894222s-70.48760889-157.86894222-157.86894222-157.86894222z m8.15559111 90.29404444h52.4288v38.44778667h-52.4288v-38.44778667z m-82.72099556 41.36049778c14.56355555-7.57304889 22.13660445-18.05880889 23.88423112-30.87473778H535.30168889v-6.99050666h20.38897778c0.58254222-4.66033778 0.58254222-9.32067555 1.16508444-15.14609778h7.57304889c0 4.66033778-0.58254222 9.32067555-1.16508445 15.14609778h34.95253334c0 6.99050667-0.58254222 14.56355555-1.16508444 21.55406222 0 11.06830222-5.82542222 16.89372445-16.89372445 16.89372444h-12.23338667c-0.58254222-3.49525333-1.16508445-5.82542222-1.74762666-7.57304889H578.40981333c6.99050667 0.58254222 11.06830222-2.91271111 11.06830222-9.32067555 0.58254222-5.24288 0.58254222-10.48576 1.16508445-15.14609778h-27.96202667c-1.74762667 16.31118222-10.48576 28.54456889-25.63185778 36.70016-1.16508445-0.58254222-2.91271111-2.33016889-5.82542222-5.24288z m2.91271112 67.57489778v-6.99050667h105.44014222v6.99050667h-105.44014222z m130.48945777 1.74762666c-0.58254222 13.98101333-8.15559111 20.38897778-22.71914667 19.80643556-7.57304889 0-16.31118222 0-26.2144 0.58254222 0-2.91271111-0.58254222-5.82542222-1.74762666-8.15559111 6.40796445 0.58254222 15.14609778 0.58254222 26.2144 0.58254222 10.48576 0.58254222 15.72864-4.07779555 15.72864-13.39847111 0.58254222-8.15559111 1.16508445-15.14609778 1.16508444-21.55406222h-103.10997333l4.07779555-22.71914667h8.15559112l-2.91271112 15.72864h69.90506667l2.91271111-22.13660444H546.95253333v-6.99050667h99.03217778l-3.49525333 29.12711111h24.46677333c-0.58254222 11.65084445-1.16508445 21.55406222-2.33016889 29.12711111z" p-id="1025"></path></svg>