<?xml version="1.0" standalone="no"?><!DOCTYPE svg PUBLIC "-//W3C//DTD SVG 1.1//EN" "http://www.w3.org/Graphics/SVG/1.1/DTD/svg11.dtd"><svg t="1558588131744" class="icon" style="" viewBox="0 0 1024 1024" version="1.1" xmlns="http://www.w3.org/2000/svg" p-id="1022" xmlns:xlink="http://www.w3.org/1999/xlink" width="200" height="200"><defs><style type="text/css"></style></defs><path d="M682.68487111 258.01159111V161.89212445c0.58254222-22.71914667-26.2144-47.76846222-47.76846222-47.76846223H370.44224c-22.13660445 0-47.76846222 24.46677333-47.76846222 47.76846223v96.11946666H178.78584889c-36.11761778 0-72.23523555 38.44778667-72.23523556 72.23523556v120.00369778h815.55911112V329.66428445c0-35.53507555-36.11761778-72.23523555-72.23523556-72.23523556h-167.18961778z m-72.23523556 0H394.32647111v-47.76846222c0-14.56355555 9.32067555-23.88423111 23.88423111-23.88423111h167.77216c14.56355555 0 23.88423111 9.32067555 23.88423111 23.88423111l0.58254222 47.76846222z m-96.70200888 334.96177778c47.18592 0 48.93354667-58.25422222 48.93354666-94.95438222H442.67747555c0.58254222 29.70965333 1.16508445 96.11946667 47.76846223 96.11946666 0-0.58254222 13.39847111-1.16508445 23.30168889-1.16508444z m96.70200888-95.53692444s37.86524445 143.88792889-107.7703111 143.88792888c-150.87843555 0-107.77031111-143.88792889-107.77031112-143.88792888H106.55061333v335.54432c0 36.70016 32.62236445 72.23523555 72.23523556 72.23523555h671.67118222c36.11761778 0 72.23523555-30.87473778 72.23523556-72.23523555V497.43644445h-312.24263112z" p-id="1023"></path></svg>