<?xml version="1.0" standalone="no"?><!DOCTYPE svg PUBLIC "-//W3C//DTD SVG 1.1//EN" "http://www.w3.org/Graphics/SVG/1.1/DTD/svg11.dtd"><svg t="1567565227687" class="icon" viewBox="0 0 1129 1024" version="1.1" xmlns="http://www.w3.org/2000/svg" p-id="13035" xmlns:xlink="http://www.w3.org/1999/xlink" width="220.5078125" height="200"><defs><style type="text/css"></style></defs><path d="M799.348 0C710.272 0 626.18 37.13 564.677 104.805 503.173 38.49 419.119 0 330.006 0 148.044 0 0 156.526 0 348.833c0 34.694 4.985 66.314 13.018 95.185h224.464c7.87 0 85.315-174.953 85.315-174.953 32.408-64.865 99.296-51.547 112.9 20.413L484.26 546.25l48.435-108.104c29.922-65.089 96.685-57.106 114.6 13.368l16.94 66.501 47.412-61.441 13.293-18.34h191.095c24.461 0 44.238 22.637 44.238 50.51 0 27.922-19.827 50.51-44.238 50.51H768.078l-59.68 80.543c-38.304 52.945-100.595 38.403-117.373-27.56l-10.77-42.327c-0.399-1.537-1.223-4.885-1.223-4.885L526.16 669.894c-30.87 67.176-98.534 55.345-112.389-17.84L365.1 394.695l-65.576 124.82-12.743 25.473H56.394c12.268 21.5 25.011 40.877 36.442 58.455 115.437 176.403 405.315 393.97 417.858 401.917 16.304 11.93 35.143 18.564 53.933 18.564a86.665 86.665 0 0 0 53.983-18.564c12.543-9.308 301.147-226.826 417.857-401.917 38.904-59.68 92.837-140.585 92.837-254.697C1129.34 156.526 981.26 0 799.348 0z" p-id="13036"></path></svg>