<?xml version="1.0" standalone="no"?><!DOCTYPE svg PUBLIC "-//W3C//DTD SVG 1.1//EN" "http://www.w3.org/Graphics/SVG/1.1/DTD/svg11.dtd"><svg t="1558590165620" class="icon" style="" viewBox="0 0 1024 1024" version="1.1" xmlns="http://www.w3.org/2000/svg" p-id="4967" xmlns:xlink="http://www.w3.org/1999/xlink" width="200" height="200"><defs><style type="text/css"></style></defs><path d="M928 678c0 9.389-7.611 17-17 17H109c-9.389 0-17-7.611-17-17v-66c0-9.389 7.611-17 17-17h802c9.389 0 17 7.611 17 17v66zM928 828c0 9.389-7.611 17-17 17H109c-9.389 0-17-7.611-17-17v-66c0-9.389 7.611-17 17-17h802c9.389 0 17 7.611 17 17v66zM911 173H109c-9.389 0-17 7.611-17 17v338c0 9.389 7.611 17 17 17h802c9.389 0 17-7.611 17-17V190c0-9.389-7.611-17-17-17zM432 338c0 9.389-7.611 17-17 17H189c-9.389 0-17-7.611-17-17v-66c0-9.389 7.611-17 17-17h226c9.389 0 17 7.611 17 17v66z" p-id="4968"></path></svg>