<?xml version="1.0" standalone="no"?><!DOCTYPE svg PUBLIC "-//W3C//DTD SVG 1.1//EN" "http://www.w3.org/Graphics/SVG/1.1/DTD/svg11.dtd"><svg t="1558591748194" class="icon" style="" viewBox="0 0 1024 1024" version="1.1" xmlns="http://www.w3.org/2000/svg" p-id="1177" xmlns:xlink="http://www.w3.org/1999/xlink" width="200" height="200"><defs><style type="text/css"></style></defs><path d="M759.92996978 433.70632533h-509.5302637c-4.97102697 0-9.32067555-4.34964859-9.32067556-9.32067555v-47.22475615c0-4.97102697 4.34964859-9.32067555 9.32067556-9.32067555H760.55134815c4.97102697 0 9.32067555 4.34964859 9.32067555 9.32067555v47.22475615c-0.62137837 5.59240533-4.34964859 9.32067555-9.94205392 9.32067555z" p-id="1178"></path><path d="M769.25064533 388.96708267h161.5583763v20.50548622h-161.5583763zM79.52065422 388.96708267h161.5583763v20.50548622h-161.5583763zM405.74429867 429.35667675h200.08383525v139.18875495H405.74429867z" p-id="1179"></path><path d="M769.25064533 842.57329303H246.05005748c-10.5634323 0-18.64135111-8.07791882-18.64135111-18.64135111v-238.60929422c0-10.5634323 8.07791882-18.64135111 18.64135111-18.64135111h523.20058785c9.94205392 0 18.64135111 8.07791882 18.64135112 18.64135111v238.60929422c0 9.94205392-8.07791882 18.64135111-18.64135112 18.64135111zM787.89199645 649.94599822h161.5583763v20.50548623h-161.5583763zM787.89199645 736.93897008h161.5583763v20.50548622h-161.5583763zM461.668352 326.20786725H224.30181452c-10.5634323 0-18.64135111-8.69929718-18.64135111-18.6413511V191.99013925c0-9.94205392 8.07791882-18.64135111 18.64135111-18.6413511h237.36653748c10.5634323 0 18.64135111 8.69929718 18.64135111 18.6413511V306.94513778c0 10.5634323-8.69929718 19.26272948-18.64135111 19.26272947zM784.78510459 326.20786725h-237.36653748c-10.5634323 0-18.64135111-8.69929718-18.64135111-18.6413511V191.99013925c0-9.94205392 8.07791882-18.64135111 18.64135111-18.6413511h237.36653748c10.5634323 0 18.64135111 8.69929718 18.64135111 18.6413511V306.94513778c0 10.5634323-8.69929718 19.26272948-18.64135111 19.26272947z" p-id="1180"></path></svg>