<?xml version="1.0" standalone="no"?><!DOCTYPE svg PUBLIC "-//W3C//DTD SVG 1.1//EN" "http://www.w3.org/Graphics/SVG/1.1/DTD/svg11.dtd"><svg t="1558589123871" class="icon" style="" viewBox="0 0 1024 1024" version="1.1" xmlns="http://www.w3.org/2000/svg" p-id="1053" xmlns:xlink="http://www.w3.org/1999/xlink" width="200" height="200"><defs><style type="text/css"></style></defs><path d="M182.86364445 100.72519111c-1.74762667 0.58254222-3.49525333 4.66033778-4.07779556 8.73813334-1.16508445 6.99050667-2.33016889 7.57304889-8.15559111 7.57304888-3.49525333 0-8.15559111 1.16508445-10.48576 2.33016889-2.33016889 1.16508445-5.82542222 2.91271111-8.15559111 3.49525333-2.33016889 0.58254222-5.82542222 5.24288-7.57304889 10.48576-1.74762667 5.24288-4.66033778 9.32067555-6.40796445 9.32067556-5.24288 0-16.89372445 17.47626667-16.89372444 24.46677334 0 5.82542222-1.16508445 6.99050667-7.57304889 8.1555911-11.06830222 2.33016889-10.48576-19.22389333-10.48576 333.79669334s-0.58254222 331.46652445 10.48576 333.79669333c6.99050667 1.16508445 7.57304889 2.33016889 7.57304889 8.15559111 0 3.49525333 1.16508445 8.15559111 2.33016889 10.48576 1.16508445 2.33016889 2.91271111 5.82542222 3.49525333 8.15559112 0.58254222 2.33016889 4.66033778 5.24288 8.73813334 6.99050666 4.07779555 1.74762667 8.15559111 5.82542222 10.48576 10.48576 1.74762667 4.07779555 4.66033778 7.57304889 6.99050666 8.73813334 2.33016889 0.58254222 5.82542222 2.33016889 8.15559111 3.49525333 2.33016889 1.16508445 6.99050667 2.33016889 10.48576 2.33016889 5.82542222 0 6.99050667 1.16508445 8.15559111 7.57304888 2.33016889 11.06830222-19.22389333 10.48576 333.79669334 10.48576s331.46652445 0.58254222 333.79669333-10.48576c1.16508445-6.99050667 2.33016889-7.57304889 8.15559111-7.57304888 3.49525333 0 8.15559111-1.16508445 10.48576-2.33016889 2.33016889-1.16508445 5.82542222-2.91271111 8.15559111-3.49525333 2.33016889-0.58254222 5.24288-4.66033778 6.99050667-8.73813334 1.74762667-4.07779555 5.82542222-8.15559111 10.48576-10.48576 4.07779555-1.74762667 7.57304889-4.66033778 8.73813333-6.99050666 0.58254222-2.33016889 2.33016889-5.82542222 3.49525333-8.15559112s2.33016889-6.99050667 2.3301689-10.48576c0-5.82542222 1.16508445-6.99050667 7.57304888-8.15559111 11.06830222-2.33016889 10.48576 19.22389333 10.48576-333.79669333s0.58254222-331.46652445-10.48576-333.79669334c-6.99050667-1.16508445-7.57304889-2.33016889-7.57304888-8.1555911 0-7.57304889-12.23338667-24.46677333-16.89372445-24.46677334-1.74762667 0-4.66033778-4.07779555-6.40796445-9.32067556-1.74762667-5.24288-5.24288-9.90321778-7.57304888-10.48576-2.33016889-0.58254222-5.82542222-2.33016889-8.15559112-3.49525333s-6.99050667-2.33016889-10.48576-2.33016889c-5.82542222 0-6.99050667-1.16508445-8.1555911-7.57304888-0.58254222-4.07779555-2.91271111-8.15559111-5.24288-9.32067556-6.99050667-1.16508445-656.52508445-1.16508445-660.60288 0.58254222m606.42645333 65.24472889c48.35100445 6.40796445 64.66218667 30.29219555 66.99235555 96.11946667 2.33016889 70.48760889 2.33016889 503.31648-0.58254222 522.54037333-4.66033778 37.28270222-31.45728 64.07964445-68.73998222 68.73998222-24.46677333 2.91271111-530.69596445 2.91271111-553.99765334 0-36.11761778-5.24288-60.00184889-28.54456889-64.66218666-64.66218667-2.91271111-19.80643555-2.91271111-449.14005333-0.58254222-526.61816888l1.74762666-44.85575112 9.32067556-15.14609777c13.39847111-21.55406222 31.45728-33.20490667 56.50659556-36.70016 20.38897778-2.33016889 533.02613333-2.33016889 553.99765333 0.58254222m-534.77376 45.43829333c-8.15559111 2.33016889-37.86524445 13.98101333-41.94304 16.89372445-1.74762667 1.16508445-4.66033778 5.24288-6.40796445 9.90321777-1.74762667 4.07779555-4.66033778 8.15559111-6.40796444 8.15559112-5.24288 0-8.73813333 4.66033778-6.40796444 9.32067555 2.33016889 4.66033778 14.56355555 1.16508445 27.37948444-7.57304889 14.56355555-9.90321778 15.72864-9.90321778 291.27111111-9.90321778s276.12501333 0 291.27111111 9.90321778c12.81592889 8.73813333 25.04931555 11.65084445 27.37948444 7.57304889 2.33016889-4.66033778-1.16508445-9.32067555-6.40796444-9.32067555-1.74762667 0-4.66033778-3.49525333-6.40796444-8.15559112-4.07779555-9.32067555-3.49525333-9.32067555-27.37948445-19.80643555l-18.05880889-8.15559111-255.73603555-0.58254222c-140.39267555 0-258.64874667 1.16508445-262.144 1.74762666m11.06830222 74.56540445C238.20515555 298.20700445 223.05905778 313.93564445 214.32092445 337.23733333c-3.49525333 10.48576-4.07779555 329.71889778 0 342.53482667 6.99050667 24.46677333 29.70965333 46.60337778 55.92405333 53.59388445 16.89372445 4.66033778 476.51953778 3.49525333 488.17038222-1.74762667 28.54456889-12.23338667 44.85575111-28.54456889 51.26371555-52.4288 4.07779555-15.72864 3.49525333-330.30144-1.16508444-342.53482667-9.32067555-26.2144-21.55406222-38.44778667-50.09863111-50.68117333-12.23338667-4.66033778-481.17987555-5.24288-492.83072 0m56.50659555 34.95253333v9.90321778l-15.72864 7.57304889c-18.05880889 8.15559111-34.36999111 26.2144-45.43829333 49.51608889-6.99050667 15.72864-8.15559111 15.14609778-16.89372444-7.57304889-9.32067555-25.04931555 3.49525333-52.4288 30.87473777-65.82727111 5.24288-2.33016889 10.48576-5.82542222 12.8159289-7.57304889 12.81592889-11.65084445 34.36999111-2.33016889 34.3699911 13.98101333m99.03217778 15.14609778c11.65084445 2.33016889 12.23338667 7.57304889 17.47626667 100.77980444 4.66033778 82.72099555 16.31118222 150.29589333 25.63185778 150.29589334 2.33016889 0 2.33016889-1.74762667 8.15559111-28.54456889 5.24288-25.04931555 7.57304889-28.54456889 21.55406222-28.54456889 12.81592889 0 13.98101333 1.16508445 20.97152 19.22389333 5.24288 14.56355555 6.99050667 15.14609778 17.47626667 8.73813333 13.98101333-8.73813333 27.96202667-8.15559111 35.53507555 2.3301689 4.07779555 4.66033778 11.65084445 12.23338667 17.47626667 15.72864l10.48576 6.99050666 34.36999111 0.58254222c33.20490667 0.58254222 34.95253333 0 47.18592-5.82542222 9.32067555-4.07779555 18.05880889-6.40796445 31.45728-7.57304889 10.48576-0.58254222 23.88423111-3.49525333 30.87473778-5.82542222 15.14609778-5.82542222 19.22389333-4.07779555 37.28270222 16.31118222 13.98101333 15.72864 13.98101333 19.22389333 1.16508444 26.79694223-6.99050667 4.07779555-6.99050667 4.07779555-16.31118222-0.58254223-10.48576-5.82542222-43.69066667-6.40796445-110.10048-2.91271111-46.02083555 2.33016889-69.32252445 0-82.13845333-8.15559111-11.65084445-7.57304889-26.79694222-6.99050667-36.70016 1.74762667-8.15559111 7.57304889-9.90321778 7.57304889-19.80643555 4.07779555-16.31118222-5.82542222-22.13660445 4.66033778-37.86524445 66.40981333-6.40796445 26.2144-27.37948445 41.94304-36.70016 27.96202667-2.33016889-3.49525333-5.24288-19.80643555-8.15559111-44.85575111-11.65084445-104.8576-21.55406222-130.48945778-29.12711111-78.6432-4.66033778 30.87473778-9.32067555 40.77795555-22.13660445 43.69066667-12.23338667 2.91271111-13.39847111 2.33016889-26.79694222-25.04931556-5.82542222-12.23338667-13.39847111-24.46677333-16.89372444-27.37948444l-5.82542222-5.24288-7.5730489 11.65084444c-17.47626667 26.79694222-49.51608889 39.03032889-74.56540444 27.37948445l-5.82542222-2.91271112 6.40796444-6.40796444c4.66033778-5.24288 8.15559111-6.40796445 15.72864-6.40796444 7.57304889 0 10.48576-1.16508445 13.39847112-5.24288 1.74762667-2.91271111 6.99050667-7.57304889 11.65084444-10.48576 5.82542222-3.49525333 9.32067555-8.15559111 12.81592889-18.05880889 17.47626667-47.18592 36.70016-50.09863111 60.00184889-9.90321778 11.65084445 19.80643555 15.72864 9.32067555 19.80643555-45.43829333 1.16508445-18.05880889 3.49525333-39.03032889 4.66033778-46.02083556 1.16508445-6.99050667 3.49525333-30.29219555 5.82542222-51.84625778 4.66033778-51.26371555 8.73813333-64.66218667 19.22389333-62.33201778 1.74762667 1.74762667 6.40796445 2.91271111 9.90321778 3.49525334m-159.03402666 437.48920889c-23.88423111 6.99050667-23.30168889 38.44778667 1.16508444 45.43829333 23.30168889 6.40796445 63.49710222 0.58254222 70.48760889-9.90321778 2.33016889-3.49525333 2.33016889-22.71914667 0-26.2144-6.40796445-10.48576-48.93354667-15.72864-71.65269333-9.32067555m135.73233778 4.07779555c-9.32067555 6.99050667-9.90321778 7.57304889-9.90321778 18.64135112 0 11.06830222 0.58254222 11.65084445 9.90321778 18.6413511l9.90321777 6.99050667 27.96202667-1.16508444c34.36999111-1.16508445 41.94304-5.82542222 41.94304-24.46677333 0-19.22389333-7.57304889-23.88423111-41.94304-24.46677334l-27.96202667-1.16508444-9.90321777 6.99050666" p-id="1054"></path><path d="M852.20465778 101.30773333H172.96042667c-38.44778667 0-69.90506667 31.45728-69.90506667 69.90506667v679.24423111c0 38.44778667 31.45728 69.90506667 69.90506667 69.90506667h679.24423111c38.44778667 0 69.90506667-31.45728 69.90506667-69.90506667V171.2128c0-38.44778667-31.45728-69.90506667-69.90506667-69.90506667z m33.78744889 716.52693334c0 38.44778667-31.45728 69.90506667-69.90506667 69.90506666H200.92245333c-38.44778667 0-69.90506667-31.45728-69.90506666-69.90506666V189.27160889c0-38.44778667 31.45728-69.90506667 69.90506666-69.90506667h615.16458667c38.44778667 0 69.90506667 31.45728 69.90506667 69.90506667v628.56305778z" p-id="1055"></path></svg>