<?xml version="1.0" standalone="no"?><!DOCTYPE svg PUBLIC "-//W3C//DTD SVG 1.1//EN" "http://www.w3.org/Graphics/SVG/1.1/DTD/svg11.dtd"><svg t="1558587990179" class="icon" style="" viewBox="0 0 1024 1024" version="1.1" xmlns="http://www.w3.org/2000/svg" p-id="1022" xmlns:xlink="http://www.w3.org/1999/xlink" width="200" height="200"><defs><style type="text/css"></style></defs><path d="M825.79607703 161.54259911l-27.96202666 27.96202667 13.67032415 13.67032414-64.62335052 64.62335053L859.97188741 380.88916385l64.62335051-64.62335052 15.53445926 15.53445926 27.96202667-27.96202667-142.29564682-142.29564681z m-164.04388978 57.16681007l-37.90408058 37.9040806 40.38959408 40.38959407-315.03883378 315.03883378 56.5454317 56.5454317-45.98199942 45.98199942 6.21378372 31.0689185L275.87621925 835.11675259l18.64135112 18.64135111 90.09986371-90.0998637 31.06891851 6.2137837 45.98199941-45.9819994 56.5454317 56.5454317 315.03883378-315.03883378 40.38959407 40.38959408 37.9040806-37.9040806-249.7941049-249.17272652z m109.98397157 233.63826727l-33.554432-33.554432c-10.5634323-9.94205392-26.71926992-9.94205392-36.66132385 0.62137837-9.94205392 9.94205392-9.94205392 26.09789155 0 36.03994548l33.554432 33.554432-23.61237808 23.61237807-33.554432-33.554432c-9.94205392-9.94205392-26.71926992-9.94205392-36.66132386 0-9.94205392 9.94205392-9.94205392 26.71926992 0 36.66132385l33.554432 33.554432-26.09789155 26.09789156-33.554432-33.554432c-9.94205392-9.94205392-26.71926992-9.94205392-36.66132385 0-9.94205392 9.94205392-9.94205392 26.71926992 0 36.66132385l33.554432 33.554432-24.85513481 24.85513482-33.554432-33.554432c-10.5634323-9.94205392-26.71926992-9.94205392-36.66132385 0.62137837-9.94205392 9.94205392-9.94205392 26.09789155 0 36.03994548l33.554432 33.554432-31.69029689 31.69029688-94.4495123-94.44951229 277.75613155-277.75613156 94.4495123 94.4495123-24.85513481 24.85513482z" p-id="1023"></path><path d="M64.60757333 303.83824592l27.96202667 27.96202667 15.53445925-15.53445926 64.62335053 64.62335052 113.71224177-113.71224177-64.62335052-64.62335053 13.67032415-13.67032414-27.96202666-27.3406483-142.91702519 142.29564681z m57.16681008 164.04388978l37.90408059 37.9040806 40.38959408-40.38959408 315.03883377 315.03883378 56.5454317-56.5454317 45.98199942 45.9819994 31.06891851-6.2137837 90.0998637 90.0998637 18.64135112-18.64135111-90.09986371-90.0998637 6.21378371-31.06891852-45.98199941-45.9819994 56.5454317-56.54543172L369.08297482 297.00308385l40.38959407-40.38959407-37.90408059-37.9040806-249.79410489 249.17272652z m139.81013334-15.53445925L238.59351703 429.35667675l94.4495123-94.4495123 277.75613156 277.75613155-94.4495123 94.4495123-31.69029689-31.69029689 33.554432-33.554432c9.94205392-9.94205392 9.94205392-26.09789155 0-36.03994549-9.94205392-10.5634323-26.71926992-10.5634323-36.66132385-0.62137837l-33.554432 33.554432-24.85513482-24.8551348 33.554432-33.554432c9.94205392-9.94205392 9.94205392-26.71926992 0-36.66132386-9.94205392-9.94205392-26.71926992-9.94205392-36.66132385 0l-33.554432 33.554432-26.09789155-26.09789156 33.554432-33.554432c9.94205392-9.94205392 9.94205392-26.71926992 0-36.66132385-9.94205392-9.94205392-26.71926992-9.94205392-36.66132385 0l-33.554432 33.554432-23.61237808-23.61237807L331.80027259 456.07594667c9.94205392-9.94205392 9.94205392-26.09789155 0-36.03994549-9.94205392-10.5634323-26.71926992-10.5634323-36.66132384-0.62137836l-33.554432 32.93305363z" p-id="1024"></path></svg>