<?xml version="1.0" standalone="no"?><!DOCTYPE svg PUBLIC "-//W3C//DTD SVG 1.1//EN" "http://www.w3.org/Graphics/SVG/1.1/DTD/svg11.dtd"><svg t="1558680688399" class="icon" style="" viewBox="0 0 1024 1024" version="1.1" xmlns="http://www.w3.org/2000/svg" p-id="2076" xmlns:xlink="http://www.w3.org/1999/xlink" width="200" height="200"><defs><style type="text/css"></style></defs><path d="M447.488 560.128c-1.024 6.144-1.536 20.48-1.024 42.496 0 2.048 0 4.096-0.512 7.168-0.512 3.072-2.048 5.632-4.608 8.192-2.56 2.048-5.12 3.072-8.192 2.56-3.072-0.512-5.632-2.56-8.704-6.144-2.56-3.584-4.096-9.728-3.072-18.432 0.512-8.704 2.048-19.968 4.096-33.28 1.024-5.12 1.024-8.704-0.512-10.24-1.024-1.536-6.656-3.584-15.872-6.144s-17.92-4.608-25.088-6.144c-2.56-0.512-4.096 0-4.096 1.024s0.512 2.048 1.536 3.584c6.144 7.168 10.752 14.336 13.824 20.992 3.072 6.656 4.608 11.264 4.096 13.824-0.512 2.56-1.536 4.096-3.584 5.12-2.048 1.024-3.584 1.536-5.632 1.024-1.536-0.512-3.072-0.512-3.584-1.536-0.512-0.512-4.096-2.048-10.24-3.584l-23.04-6.656c-9.216-3.072-17.408-5.12-24.576-6.144-7.168-1.024-14.848-1.536-22.528 0-8.192 1.024-15.36 1.024-22.016 0-8.192-1.536-11.776-4.608-10.752-9.216 0.512-1.536 1.536-3.584 4.096-6.656 2.56-2.56 4.608-4.096 6.656-3.584l3.072 1.024c3.584 0.512 8.704-1.536 15.36-6.656s9.728-8.704 10.24-10.752-1.024-3.072-4.608-3.584c-3.584-0.512-9.216-0.512-16.896-0.512s-13.824 2.048-18.432 4.608c-4.608 2.56-9.216 7.68-13.312 14.848-4.608 7.168-9.216 12.288-14.336 15.872-5.12 3.584-9.728 4.608-13.824 4.096-1.536-0.512-3.072-1.024-4.608-2.56-1.536-1.536-2.048-3.072-2.048-5.12 0.512-2.048 1.536-4.096 3.072-6.656 12.8-19.968 18.944-31.232 19.456-33.792 0.512-3.072 0.512-4.608 0-6.144-0.512-1.024-0.512-2.56 0-4.096 0-1.536 1.536-3.072 4.096-4.096 2.56-1.536 5.12-2.048 7.168-1.536 2.56 0.512 4.096 1.024 5.632 2.048 1.536 1.024 3.584 2.048 6.656 2.56 3.072 0.512 8.704 0.512 16.384 0.512 8.192 0 19.456 0.512 34.816 2.048 4.096 0.512 6.656-0.512 8.192-2.56 1.536-2.048 2.56-3.584 2.56-4.608 0.512-2.048-1.536-3.584-5.632-4.096-10.752-2.048-17.408-2.56-19.968-2.048-8.192 1.024-16.896 1.024-26.624 0.512l-18.432-0.512c-4.096-0.512-7.68-2.56-11.776-5.632-3.584-3.072-5.632-5.632-5.12-7.68 0.512-2.56 3.072-3.584 7.168-4.096 6.144-0.512 11.776-4.608 16.896-13.312 5.12-8.192 8.192-14.336 8.704-18.432 0.512-3.584 0-6.656-1.536-8.704-1.536-2.048-2.048-4.096-2.048-5.632 0.512-4.096 5.12-5.12 12.8-4.096 6.144 1.024 10.752 3.072 14.336 6.144 3.072 3.072 4.608 6.144 4.096 9.216-0.512 3.072-2.56 5.12-5.632 6.656-3.072 1.536-6.656 5.632-9.728 12.288-3.584 6.656-5.12 10.752-5.632 12.288-0.512 1.536 0.512 2.56 1.536 3.584 1.536 1.024 4.608 1.536 9.728 2.56 5.12 1.024 10.752 1.024 17.408 0.512 14.336-1.024 26.112-0.512 36.352 1.536 9.728 1.536 17.408 3.584 22.016 6.144 5.12 2.56 11.776 4.608 19.968 6.656s14.848 3.584 19.456 4.096c4.608 1.024 7.168 1.024 8.192 0.512 1.024-0.512 2.048-1.536 2.048-3.584 0.512-2.048 0-6.656-1.024-14.848-1.024-8.192-2.56-12.8-3.584-14.336-2.56-2.56-3.584-5.12-3.584-7.168s1.536-3.584 4.096-4.608c2.048-1.024 5.632-1.024 10.24 0 4.608 1.024 8.192 3.072 11.264 6.656 3.072 3.584 4.608 8.192 4.096 12.8-1.024 11.776-1.536 20.48-0.512 26.112 1.024 6.144 1.536 10.24 1.024 13.312-0.512 3.072-2.048 5.12-4.096 6.656-2.048 1.536-4.096 2.048-6.144 1.536-2.048-0.512-3.072-0.512-3.584-1.024-4.096-3.072-17.408-6.656-38.912-11.776l-24.576-4.608c-4.608-1.024-7.168 0-8.704 2.56-1.536 2.56-2.048 4.096-2.048 5.12 0 1.024 1.536 2.048 4.608 2.56 12.8 2.56 24.576 5.632 34.304 9.216 9.728 3.584 18.432 6.144 25.6 7.168 7.168 1.024 12.8 2.048 15.872 1.536 3.584 0 6.656 0 9.216 0.512s4.608 1.536 6.656 3.584c1.536 2.048 2.56 4.096 2.048 6.144-0.512 2.048-1.536 4.096-3.072 6.656-1.536 2.048-2.56 5.12-3.072 8.192z m63.488-114.176c-0.512 2.56-5.12 6.656-14.336 12.8-9.216 5.632-17.408 8.192-24.064 7.168-6.656-1.024-14.336-5.12-21.504-11.264-2.56-2.048-4.608-3.584-7.168-5.12-2.56-1.024-7.68-3.072-15.872-5.632-8.192-2.56-14.336-4.096-18.432-4.608-4.096-0.512-6.656-1.024-8.192-1.024-1.536 0-4.096 2.048-8.704 6.144-4.096 4.096-6.656 7.168-6.656 8.704-0.512 1.536 1.536 4.096 5.632 8.192 4.096 3.584 6.656 8.704 8.704 14.848 2.048 6.144 3.072 10.24 2.56 13.312s-2.56 3.584-6.656 3.072c-9.216-1.536-18.432-7.168-28.672-16.384-5.632-5.12-9.216-7.68-11.264-7.68-2.048-0.512-5.12 0-9.728 1.536-19.456 7.168-32.768 9.728-39.424 8.704-3.584-0.512-5.632-2.56-5.12-5.12 0.512-2.048 1.536-3.584 4.096-6.144 2.56-2.048 8.704-5.632 18.432-10.24 4.096-2.048 6.144-3.584 6.144-4.608 0-1.024-0.512-2.56-2.56-4.096-2.048-1.536-3.584-4.096-5.632-7.68-1.536-3.584-2.56-6.144-2.048-8.704 0.512-2.048 2.048-3.072 4.608-2.56 1.536 0 3.072 1.024 5.632 2.56 2.56 1.536 7.168 3.072 13.824 4.608 6.656 2.048 11.776 3.072 15.872 3.584 3.584 0.512 7.68 0 11.264-2.56 4.096-2.56 5.632-4.096 6.144-4.608 0-0.512 0-1.536-1.024-1.536-1.024-0.512-5.12-1.536-12.8-3.072s-14.848-3.072-21.504-4.096c-17.92-3.072-34.304-4.096-49.664-2.56-21.504 2.048-34.816 2.56-40.448 1.536-5.632-1.024-9.216-3.072-9.728-6.656-1.024-3.584-1.024-7.68 0-11.776 0.512-4.096 2.048-6.656 3.584-8.192 1.536-1.536 3.072-2.048 4.096-1.536 1.536 0 2.56 0.512 3.072 1.536 1.024 0.512 2.048 1.536 3.584 1.536 1.536 0.512 3.584 0.512 5.632 0 2.048 0 10.24 0.512 24.576 2.56s27.136 3.584 37.888 5.632c10.752 2.048 17.92 2.56 20.992 2.048 3.072-0.512 5.632-2.048 9.216-4.608 3.072-2.56 5.12-5.12 5.632-7.68 1.536-6.144 4.096-8.704 7.68-8.192 3.584 0.512 9.216 3.584 15.872 8.192s11.264 10.752 13.312 17.92c0.512 3.072 2.048 4.608 3.072 6.144 1.536 1.024 4.096 2.048 8.704 3.072 16.384 3.072 28.672 6.656 36.352 10.752 8.192 3.584 14.336 6.144 19.456 7.168 4.608 1.024 8.704 1.024 12.288 0.512 3.072-0.512 7.168-0.512 11.264 0.512 4.096 0.512 7.168 1.536 9.216 2.56 1.536 1.024 3.072 1.536 4.096 1.536 1.024 0 2.048 0 3.584-0.512 1.536-0.512 3.072-0.512 4.096-0.512s1.024-0.512 1.024 0.512z m-141.312 110.592c0-1.024-1.024-4.608-3.584-9.728-2.56-5.12-5.12-8.704-6.656-9.728s-4.608-2.56-8.704-3.072c-4.096-0.512-7.168-0.512-8.704 0.512-2.048 1.024-3.584 3.072-5.632 6.144-2.048 3.072-3.072 6.144-3.584 8.192-0.512 2.048 0.512 3.584 2.56 4.096 2.048 1.024 10.752 2.56 26.112 5.12 5.12 1.024 7.68 0.512 8.192-1.536zM617.984 574.464c0 1.024-1.536 3.072-3.584 5.632-2.048 2.56-3.584 6.144-4.608 10.752-1.024 4.608-5.632 8.192-13.312 11.776-7.68 3.072-16.384 4.096-26.112 3.584-3.072-0.512-13.824 1.536-31.232 5.632-8.192 1.536-13.824 2.048-16.896 1.536-3.072-0.512-5.632-3.072-6.656-7.68-1.536-4.608-2.048-8.192-1.024-11.264 0.512-3.072 2.048-5.632 4.608-8.192 2.56-2.048 5.12-3.072 8.192-3.072 3.072 0.512 7.68-0.512 13.312-2.56s15.872-3.584 30.208-5.12c14.336-1.536 24.064-1.536 29.184-0.512 5.12 1.024 9.728 0.512 13.312-1.024 1.536-0.512 3.072-1.024 4.096-1.024 0 0 0.512 0.512 0.512 1.536z m37.376-124.928c2.048 0.512 3.072 1.536 4.096 3.072 1.024 2.048 1.024 3.584 0.512 5.632-0.512 2.048-1.536 4.096-3.584 6.656-2.048 2.56-4.096 4.096-6.144 5.12-8.192 3.584-14.336 7.168-18.432 10.24-4.096 3.584-11.264 10.24-20.992 20.992-9.728 10.24-16.896 17.408-20.48 20.48-4.096 3.072-6.144 5.12-6.144 6.656s1.024 2.048 3.584 2.56c3.072 0.512 7.68 0.512 14.336 0s10.752-1.024 12.288-1.024c1.536-0.512 3.584-1.024 6.656-2.048 3.584-1.024 5.632-1.536 7.168-1.536s1.536 1.024 1.536 2.048c-0.512 2.048-3.072 7.168-8.192 14.336s-8.704 11.776-11.264 12.8c-2.56 1.536-7.68 2.048-15.36 2.048s-17.408 1.024-29.184 3.584c-11.776 2.048-18.944 4.096-22.016 5.632-3.072 1.536-6.144 2.048-8.704 1.536-2.56-0.512-4.608-2.048-6.656-4.608s-2.56-5.12-2.048-8.192c0.512-3.072 1.536-6.144 2.56-8.704 1.024-3.072 2.56-5.12 4.096-6.144 1.536-1.024 4.096-2.048 7.168-3.584 3.584-1.024 9.728-4.608 18.944-9.728 9.216-5.12 14.336-8.704 14.848-11.264 0.512-2.56-0.512-4.096-2.56-5.12-2.048-1.024-5.632-2.048-10.24-3.072l-13.824-2.56c-5.632-1.024-9.216-2.048-11.264-3.584-1.536-1.536-2.048-4.096-1.536-7.68 0.512-3.584 2.048-7.168 3.584-10.24 1.536-3.072 4.096-5.12 6.656-6.656 3.072-1.024 7.68-2.56 13.824-4.096 6.144-1.536 14.336-5.632 24.576-12.8s15.872-11.776 17.408-14.848c2.048-3.072 5.12-6.144 9.216-9.216 4.608-3.072 7.68-4.608 10.24-4.096 3.584 0.512 5.12 3.584 4.096 9.216-1.024 5.12-4.608 9.216-10.24 12.288-6.144 3.072-12.8 7.68-20.48 14.336-7.68 6.656-11.264 10.752-11.776 11.776 0 1.024 1.024 2.048 4.096 2.56 8.704 1.536 15.36 1.536 20.992 0.512 5.632-1.024 10.752-4.096 14.848-8.192 11.776-11.264 19.456-18.432 23.04-21.504 4.096-3.072 7.68-4.608 10.752-3.584z m119.808 202.752c-0.512 2.048-2.56 4.096-7.168 7.168-4.608 2.56-9.728 5.632-16.384 8.704-6.656 3.072-13.312 4.096-20.48 2.56-7.168-1.024-13.312-4.096-18.944-8.192s-9.728-9.728-11.776-15.872c-2.048-6.144-3.584-14.848-5.12-25.088-1.536-10.752-2.56-17.408-3.584-20.48-1.024-3.072-2.56-4.608-4.096-5.12-2.048-0.512-6.656 0.512-14.848 2.56s-15.36 4.096-21.504 6.656c-6.656 2.048-11.776 3.072-15.872 2.048s-7.68-4.096-10.752-10.24c-3.072-6.144-4.608-10.24-4.608-12.288s2.56-2.56 7.168-2.56c4.608 0 13.824-1.024 28.16-3.072 14.336-2.048 22.528-3.072 25.088-3.072s4.096-1.024 4.608-3.584c0.512-2.56 0.512-5.632 0-9.728-0.512-4.096-2.56-6.144-5.632-6.656h-16.896c-10.24 0-16.384 0.512-17.92 0.512-1.536 0.512-3.584 0.512-6.656 0-2.56-0.512-5.12-2.048-7.168-4.608-2.048-2.56-3.072-5.632-2.56-9.216 0.512-3.584 2.048-6.656 4.608-9.728 2.56-3.072 5.12-4.096 7.68-3.584 0.512 0 1.536 0.512 2.56 1.024s2.56 1.024 4.096 1.536c2.048 0.512 7.168-0.512 15.872-2.048 8.704-1.536 14.336-3.072 16.384-4.096 2.048-1.024 3.584-2.56 3.584-4.096 1.024-5.12-1.024-8.192-5.632-8.704-2.56-0.512-7.68 0-15.872 1.024s-13.312 1.536-15.872 1.024c-6.656-1.024-9.216-7.168-7.168-17.408 2.048-10.752 5.12-15.36 9.216-14.848l4.096 1.024c1.536 0 4.096 0 8.192-0.512s10.24-0.512 17.92-0.512c1.536 0 2.56-1.024 3.584-3.072 1.024-2.048 2.048-5.632 2.56-9.728 0.512-4.608 1.024-9.216 2.048-14.336 1.024-5.12 2.048-8.192 3.584-9.216 1.536-1.024 3.072-1.536 4.608-1.024 1.536 0 2.56 1.024 3.584 3.072 1.024 1.536 1.536 3.072 1.536 4.608 0 1.536-0.512 3.584-1.024 7.168s-0.512 7.68 0 12.288c0.512 4.608 1.536 7.68 3.072 9.216 1.536 1.536 4.608 3.072 10.24 3.584 5.632 1.024 9.728 1.024 12.8 0.512 3.072-0.512 6.144-3.072 8.704-7.168 2.56-4.096 4.608-8.704 6.144-13.824 1.536-5.12 4.096-7.168 8.192-6.144 3.584 0.512 7.68 2.048 11.264 4.608 3.584 2.56 5.12 5.12 4.608 7.168-0.512 2.56-2.048 4.608-4.608 6.144-2.56 2.048-5.632 4.096-8.192 6.144-2.56 2.56-4.096 4.096-4.608 5.632 0 1.536 2.56 2.56 7.68 4.096 5.632 1.024 10.752 3.072 15.872 5.632 5.12 2.56 8.192 4.096 9.216 5.632 1.024 1.024 1.536 2.56 1.024 4.608-0.512 2.048-1.536 3.584-3.584 4.608-2.048 1.536-4.096 3.072-5.632 5.12-1.536 2.048-3.584 3.584-6.144 4.096-2.56 0.512-5.12 0.512-7.68 0s-5.12-1.024-7.168-2.048c-2.048-1.024-5.12-1.536-9.728-2.56-4.096-0.512-11.776-1.536-22.016-2.56s-16.384-1.024-18.432 0c-2.048 1.024-3.072 2.56-3.584 5.12-0.512 2.56 0 4.096 1.024 5.632 1.024 1.536 4.096 2.56 8.704 3.072 19.968 3.584 32.768 6.144 38.912 7.168 6.144 1.536 10.752 3.072 13.824 4.608 3.072 1.536 5.632 2.56 7.168 3.072l4.096 0.512c1.024 0 1.024 0.512 1.024 1.536 0 1.024-2.048 4.096-5.12 8.704-3.072 4.608-6.144 7.68-9.728 8.704-3.584 1.024-6.144 1.536-8.192 1.024l-7.68-1.536c-7.68-1.536-15.36-2.56-23.552-3.072-8.192-1.024-13.312-1.024-14.336-0.512-1.024 0.512-2.048 1.536-2.048 2.56s0 4.096 0.512 7.68 2.56 6.144 6.144 6.656 9.728 1.024 18.944 1.536c9.216 0.512 15.36 0 17.92-1.024s4.608-1.024 6.656-0.512 3.072 1.536 4.608 4.096 1.536 4.608 1.024 6.144-2.048 3.584-4.608 5.12c-3.072 1.536-6.144 3.072-10.24 3.072-4.096 0.512-11.776 0-23.552-0.512-5.12-0.512-7.68 0.512-8.192 2.048-0.512 1.536 0.512 4.096 2.048 7.168 1.536 3.584 4.096 7.68 7.68 12.288 3.584 4.608 7.168 8.704 11.264 11.776 3.584 3.072 9.216 6.656 16.896 11.264s12.8 7.168 15.36 8.704c3.072 1.024 5.632 2.048 8.704 2.56 3.072 0 4.608 1.024 4.096 2.56z" p-id="2077"></path><path d="M262.144 281.088c-4.096-17.408-28.16-20.992-50.176-26.112-30.208 8.704-69.12-19.968-102.912-4.096 30.208 20.992 114.176 35.328 153.088 30.208zM279.552 651.264c-79.872-13.312-163.84-24.064-240.64-41.984 14.848-116.224 31.232-207.36 52.224-333.824l-9.728-1.536C53.248 365.568 35.84 506.88 12.288 628.736c87.552 13.824 178.176 30.72 268.288 47.616l-1.024-25.088z" p-id="2078"></path><path d="M439.808 686.08c-50.688-18.432-114.176-25.6-169.984-32.256v20.48c67.584 11.264 134.144 20.992 198.656 27.136 8.704 1.536 26.112 22.528 33.28 5.632 6.656-25.6-48.128-27.136-61.952-20.992zM584.704 704.512c-11.776 8.192-45.568 2.048-53.76-9.216 1.536 11.776-11.264 3.584-17.92 3.584l-3.072 16.896c32.256 4.608 54.272-3.072 80.384 13.824l3.072-16.896c-5.12-0.512-11.264-1.024-8.704-8.192zM349.184 302.592c3.072-13.824-22.528-7.68-32.256-12.8-3.072 14.336 22.528 8.192 32.256 12.8zM1007.616 394.752c-187.392-33.792-405.504-70.656-570.88-100.864-9.216 1.024-9.216 14.848-19.456 13.824 1.024-17.408-31.744-10.752-37.376-24.064-4.096 11.264-27.136-5.12-23.552 16.896 202.24 44.032 421.888 75.264 630.784 114.688-23.04 131.072-41.472 225.792-61.952 349.184-54.784-9.216-159.232-25.6-213.504-37.888-10.752 1.536-13.312 14.848-26.112 12.8-15.872-11.264-28.16-19.968-46.592-8.192 83.456 30.72 197.632 37.376 289.28 57.856l44.032-248.832c6.144-5.12 17.408-3.072 19.456-13.824-12.288-49.152 25.6-99.84 15.872-131.584zM616.96 717.312c2.56 13.312-10.24 4.608-9.728 15.36l23.552 4.096c-3.584-7.168-1.024-18.432-13.824-19.456zM379.904 284.16z" p-id="2079"></path></svg>