<?xml version="1.0" standalone="no"?><!DOCTYPE svg PUBLIC "-//W3C//DTD SVG 1.1//EN" "http://www.w3.org/Graphics/SVG/1.1/DTD/svg11.dtd"><svg t="1558589948967" class="icon" style="" viewBox="0 0 1024 1024" version="1.1" xmlns="http://www.w3.org/2000/svg" p-id="1085" xmlns:xlink="http://www.w3.org/1999/xlink" width="200" height="200"><defs><style type="text/css"></style></defs><path d="M572.8950803 262.82727348V179.56257185c0-4.97102697-1.24275675-11.18481067-1.86413512-16.15583763h17.39859437V132.95919408h75.18678282v-32.31167526h-75.18678282v-12.42756741H399.53051497v75.18678281h17.39859436c-1.24275675 4.97102697-1.86413511 9.94205392-1.86413511 16.15583763v1.86413512h-37.28270222v-4.3496486c0-14.91308089-12.42756741-27.3406483-28.58340503-27.34064829-14.91308089 0-28.58340503 12.42756741-28.58340505 27.34064829v68.97299911c0 14.91308089 12.42756741 27.3406483 28.58340505 27.3406483 14.91308089 0 28.58340503-12.42756741 28.58340503-27.3406483v-4.34964859h37.28270222v20.50548622C341.12094815 285.19689482 288.30378667 389.58846103 288.30378667 470.98902755V897.25458963c0 25.47651318 20.50548622 45.36062103 45.36062103 45.36062104h320.00986075c25.47651318 0 45.36062103-20.50548622 45.36062103-45.36062104V471.61040592c0-81.40056652-53.43853985-185.79213275-126.13980918-208.78313244z m114.33362015 613.92182993c0 23.61237808-19.26272948 42.87510755-42.87510756 42.87510756H344.84921837c-23.61237808 0-42.87510755-19.26272948-42.87510755-42.87510756V478.445568c0-48.46751289 20.50548622-106.25570133 52.81716148-147.26667378 18.64135111-22.9909997 40.38959408-40.38959408 65.24472888-48.46751289 0 0 83.26470163-21.12686459 147.88805215 0 68.35162075 21.74824297 118.68326875 119.30464711 118.68326875 195.1128083v398.92491378z" p-id="1086"></path><path d="M434.94908208 536.85513482c-15.53445925 0-28.58340503 6.2137837-38.52545897 18.01997273-9.94205392 11.80618903-15.53445925 27.3406483-15.53445926 46.60337778 0 19.26272948 4.97102697 34.79718875 14.29170252 46.60337778 9.32067555 11.80618903 22.36962133 17.39859437 38.52545896 17.39859437 16.777216 0 29.82616178-5.59240533 39.7682157-16.777216 9.94205392-11.18481067 14.91308089-27.3406483 14.91308089-47.84613451 0-19.88410785-4.97102697-35.41856711-14.29170251-46.60337779-9.94205392-11.80618903-22.9909997-17.39859437-39.14683733-17.39859436z" p-id="1087"></path><path d="M559.84613452 303.21686755c-57.78818845-19.88410785-132.97497125 0-132.97497127 0-22.36962133 7.45654045-42.25372918 23.61237808-59.03094517 45.36062104-29.20478341 37.90408059-47.84613452 91.96399882-47.84613453 137.32461986v372.82702222c0 22.36962133 16.777216 39.7682157 38.52545897 39.7682157h269.05683437c21.12686459 0 38.52545897-18.01997275 38.52545896-39.7682157v-372.82702222c0-70.83713422-44.73924267-162.80113303-106.25570133-182.6852409z m-79.53643141 350.4574009c-11.80618903 13.67032415-26.71926992 19.88410785-46.60337778 19.88410785-19.26272948 0-34.17581037-6.83516208-45.36062103-19.88410785s-16.777216-30.44754015-16.777216-51.57440475c0-22.36962133 5.59240533-40.38959408 17.39859437-54.05991822 11.80618903-13.67032415 27.3406483-20.50548622 47.84613451-20.50548623 18.01997275 0 32.93305363 6.2137837 44.1178643 19.2627295 11.18481067 13.04894578 16.777216 29.82616178 16.777216 50.95302636 0 24.23375645-5.59240533 42.87510755-17.39859437 55.92405334z m113.09086341 17.39859437h-76.42953955v-6.83516207c0-4.34964859 0.62137837-8.07791882 1.24275673-11.80618905 0.62137837-3.72827022 1.86413511-6.83516208 3.10689185-9.94205392s3.10689185-5.59240533 5.59240534-8.07791881c1.86413511-2.48551348 4.34964859-4.97102697 7.45654044-8.07791882 3.10689185-2.48551348 6.2137837-4.97102697 9.32067556-8.07791882 3.72827022-2.48551348 7.45654045-5.59240533 11.80618903-8.69929718 4.34964859-3.10689185 8.07791882-6.2137837 11.18481067-9.32067556 3.72827022-3.10689185 6.83516208-6.2137837 9.32067556-9.94205392 2.48551348-3.72827022 4.97102697-7.45654045 6.2137837-11.18481067 1.24275675-4.34964859 2.48551348-8.69929718 2.48551348-14.29170252 0-9.32067555-2.48551348-16.777216-7.45654044-21.74824296s-11.80618903-7.45654045-20.50548622-7.45654044c-6.2137837 0-11.80618903 1.24275675-17.39859437 4.34964859-5.59240533 2.48551348-11.18481067 6.83516208-16.15583763 11.80618903v-10.56343229c4.97102697-4.34964859 10.5634323-7.45654045 16.777216-9.94205393 6.2137837-2.48551348 12.42756741-3.72827022 18.64135111-3.72827023 5.59240533 0 10.5634323 0.62137837 14.91308089 2.4855135 4.34964859 1.86413511 8.07791882 4.34964859 11.18481066 7.45654043s5.59240533 6.83516208 7.45654045 11.18481067c1.86413511 4.34964859 2.48551348 9.32067555 2.48551347 14.9130809 0 6.2137837-0.62137837 12.42756741-2.48551347 17.39859436-1.86413511 4.97102697-4.34964859 9.32067555-7.45654045 13.67032414-3.10689185 4.34964859-6.83516208 8.07791882-10.5634323 11.18481067-4.34964859 3.72827022-8.69929718 6.83516208-13.04894578 10.5634323-6.2137837 4.34964859-11.18481067 8.69929718-15.53445925 11.80618903-4.34964859 3.72827022-7.45654045 6.83516208-9.94205392 10.5634323s-4.34964859 6.83516208-5.59240533 10.5634323c-1.24275675 3.72827022-1.86413511 7.45654045-1.86413512 12.4275674v1.24275675h67.108864v8.07791882z" p-id="1088"></path></svg>