<?xml version="1.0" standalone="no"?><!DOCTYPE svg PUBLIC "-//W3C//DTD SVG 1.1//EN" "http://www.w3.org/Graphics/SVG/1.1/DTD/svg11.dtd"><svg t="1558579479936" class="icon" style="" viewBox="0 0 1024 1024" version="1.1" xmlns="http://www.w3.org/2000/svg" p-id="928" xmlns:xlink="http://www.w3.org/1999/xlink" width="200" height="200"><defs><style type="text/css"></style></defs><path d="M457.94008178 585.94402608c0-5.59240533 4.34964859-9.94205392 9.94205392-9.94205393 5.59240533 0 9.94205392 4.34964859 9.94205393 9.94205393 0 9.32067555 3.72827022 18.01997275 9.94205392 24.23375644s14.91308089 9.94205392 24.23375645 9.94205393c5.59240533 0 9.94205392 4.34964859 9.94205392 9.94205392 0 5.59240533-4.34964859 9.94205392-9.94205392 9.94205393-14.91308089 0-28.58340503-6.2137837-38.52545897-16.15583763-9.32067555-9.32067555-15.53445925-22.9909997-15.53445925-37.90408059z" p-id="929"></path><path d="M748.12378075 155.32881541h-221.83207823V73.92824889h-27.3406483v82.02194489H277.118976c-36.03994548 0-64.62335052 29.20478341-64.62335052 64.62335052v584.09566815c0 36.03994548 29.20478341 64.62335052 64.62335052 64.62335052h221.83207822v78.29367466h27.3406483v-78.29367466H748.12378075c36.03994548 0 64.62335052-29.20478341 64.6233505-64.62335052v-584.09566815c0-36.03994548-29.20478341-65.24472889-64.6233505-65.24472889zM457.94008178 787.27061808v41.01097244H277.118976c-13.04894578 0-24.23375645-11.18481067-24.23375645-23.61237807v-584.09566815c0-13.04894578 11.18481067-24.23375645 23.61237808-24.23375645h221.83207822v32.93305363c-16.15583763 5.59240533-27.3406483 20.50548622-27.3406483 38.52545897 0 22.36962133 18.01997275 41.01097245 41.01097245 41.01097244 22.36962133 0 41.01097245-18.64135111 41.01097245-41.01097244 0-18.01997275-11.18481067-32.93305363-27.3406483-38.52545897v-32.93305363h221.83207822c13.04894578 0 23.61237808 10.5634323 23.61237808 23.61237807v584.09566816c0 13.04894578-11.18481067 24.23375645-23.61237808 24.23375644h-180.82110578v-41.01097244H457.94008178z" p-id="930"></path><path d="M730.72518637 367.2188397H293.896192v420.05177838h136.70324148v-13.67032416c0-7.45654045 6.2137837-13.67032415 13.67032415-13.67032414h136.70324148c7.45654045 0 13.67032415 6.2137837 13.67032414 13.67032414v13.67032416h136.7032415v-75.18678283H679.77216v-27.34064828h50.95302637V630.06189037H679.77216v-27.34064829h50.95302637v-54.6812966H679.77216v-27.3406483h50.95302637v-54.68129659H679.77216v-27.34064829h50.95302637V367.2188397z m-218.103808 297.01886105c-43.49648592 0-78.29367467-35.41856711-78.29367467-78.29367467 0-42.25372918 60.27370192-113.09086341 78.29367467-140.43151171 18.01997275 26.71926992 78.29367467 98.17778252 78.29367466 140.43151171 0 43.49648592-34.79718875 78.29367467-78.29367466 78.29367467z" p-id="931"></path></svg>