<?xml version="1.0" standalone="no"?><!DOCTYPE svg PUBLIC "-//W3C//DTD SVG 1.1//EN" "http://www.w3.org/Graphics/SVG/1.1/DTD/svg11.dtd"><svg t="1558590612080" class="icon" style="" viewBox="0 0 1024 1024" version="1.1" xmlns="http://www.w3.org/2000/svg" p-id="1151" xmlns:xlink="http://www.w3.org/1999/xlink" width="200" height="200"><defs><style type="text/css"></style></defs><path d="M865.3203125 512C865.3203125 464.5390625 891.6875 422.3515625 933.875 406.53125 912.78125 332.703125 870.59375 264.1484375 817.859375 211.4140625 780.9453125 237.78125 728.2109375 243.0546875 686.0234375 221.9609375 643.8359375 195.59375 622.7421875 153.40625 628.015625 105.9453125 591.1015625 95.3984375 548.9140625 90.125 512 90.125 469.8125 90.125 432.8984375 95.3984375 395.984375 105.9453125 401.2578125 148.1328125 380.1640625 195.59375 337.9765625 221.9609375 295.7890625 248.328125 243.0546875 243.0546875 206.140625 211.4140625 153.40625 264.1484375 111.21875 332.703125 90.125 406.53125 132.3125 422.3515625 158.6796875 464.5390625 158.6796875 512 158.6796875 559.4609375 132.3125 601.6484375 90.125 617.46875 111.21875 691.296875 153.40625 759.8515625 206.140625 812.5859375 243.0546875 786.21875 295.7890625 780.9453125 337.9765625 802.0390625 380.1640625 828.40625 401.2578125 870.59375 395.984375 918.0546875 432.8984375 928.6015625 475.0859375 933.875 512 933.875 554.1875 933.875 591.1015625 928.6015625 628.015625 918.0546875 622.7421875 875.8671875 643.8359375 828.40625 686.0234375 802.0390625 728.2109375 775.671875 780.9453125 780.9453125 817.859375 812.5859375 870.59375 759.8515625 912.78125 691.296875 933.875 617.46875 891.6875 601.6484375 865.3203125 559.4609375 865.3203125 512L865.3203125 512ZM512 686.0234375C411.8046875 686.0234375 332.703125 606.921875 332.703125 512 332.703125 417.078125 411.8046875 337.9765625 512 337.9765625 612.1953125 337.9765625 691.296875 417.078125 691.296875 512 691.296875 606.921875 612.1953125 686.0234375 512 686.0234375ZM512 617.46875C570.24878222 617.46875 617.46875 570.24878222 617.46875 512 617.46875 453.75121778 570.24878222 406.53125 512 406.53125 453.75121778 406.53125 406.53125 453.75121778 406.53125 512 406.53125 570.24878222 453.75121778 617.46875 512 617.46875Z" p-id="1152"></path></svg>