<?xml version="1.0" standalone="no"?><!DOCTYPE svg PUBLIC "-//W3C//DTD SVG 1.1//EN" "http://www.w3.org/Graphics/SVG/1.1/DTD/svg11.dtd"><svg t="1558593508136" class="icon" style="" viewBox="0 0 1024 1024" version="1.1" xmlns="http://www.w3.org/2000/svg" p-id="1207" xmlns:xlink="http://www.w3.org/1999/xlink" width="200" height="200"><defs><style type="text/css"></style></defs><path d="M812.12575289 400.7732717v96.31364741h92.58537719V423.14289303h23.61237807V598.99297185h-23.61237807v-75.18678282h-92.58537719V623.84810667h137.32461986V400.7732717zM787.27061808 523.80618903v128.0039443h-9.94205393v-52.19578311h-24.85513482v-17.39859437h-59.03094518v-130.48945777h59.03094518v-17.39859438h24.85513482v-52.19578311h9.94205393v114.95499852h24.85513481V379.64640711c0-6.83516208-5.59240533-12.42756741-12.42756741-12.42756741H88.21995141c-6.83516208 0-12.42756741 5.59240533-12.42756741 12.42756741v272.78510459c0 6.83516208 5.59240533 12.42756741 12.42756741 12.42756741h711.47823407c6.83516208 0 12.42756741-5.59240533 12.42756741-12.42756741v-128.62532267h-24.85513481z m-392.08975171 58.40956682H187.64049067v59.03094518H100.02614045V390.20983941h88.23572858v61.51645867h206.91899734v130.48945777z m138.5673766 0H418.17186608v-130.48945777h115.57637689v130.48945777z m137.94599821 0h-115.57637688v-130.48945777h115.57637688v130.48945777z" p-id="1208"></path></svg>