<?xml version="1.0" standalone="no"?><!DOCTYPE svg PUBLIC "-//W3C//DTD SVG 1.1//EN" "http://www.w3.org/Graphics/SVG/1.1/DTD/svg11.dtd"><svg t="1558593853692" class="icon" style="" viewBox="0 0 1024 1024" version="1.1" xmlns="http://www.w3.org/2000/svg" p-id="1238" xmlns:xlink="http://www.w3.org/1999/xlink" width="200" height="200"><defs><style type="text/css"></style></defs><path d="M115.64345015 357.56676235h793.37590329v283.67993868H115.64345015z" p-id="1239"></path><path d="M128.23671845 454.33608723H59.96794817c-7.29083955 0-13.2560719 5.96523235-13.2560719 13.2560719v82.18764579c0 7.29083955 5.96523235 13.2560719 13.2560719 13.2560719h68.26877028c7.29083955 0 13.2560719-5.96523235 13.25607192-13.2560719V467.59215913c0-7.29083955-5.96523235-13.2560719-13.25607192-13.2560719z m-2.65121436 75.55960984c0 7.29083955-5.96523235 13.2560719-13.25607191 13.2560719h-32.47737616c-7.29083955 0-13.2560719-5.96523235-13.2560719-13.2560719v-41.0938229c0-7.29083955 5.96523235-13.2560719 13.2560719-13.2560719h32.47737616c7.29083955 0 13.2560719 5.96523235 13.25607191 13.2560719v41.0938229zM882.50720963 472.2317843v82.18764578c0 7.29083955 5.96523235 13.2560719 13.25607192 13.2560719h68.26877028c7.29083955 0 13.2560719-5.96523235 13.2560719-13.2560719V472.2317843c0-7.29083955-5.96523235-13.2560719-13.2560719-13.25607191h-68.26877028c-7.29083955 0-13.2560719 5.96523235-13.25607192 13.25607191z m15.24448269 21.20971504c0-7.29083955 5.96523235-13.2560719 13.25607191-13.25607191h32.47737615c7.29083955 0 13.2560719 5.96523235 13.25607191 13.25607191v41.09382289c0 7.29083955-5.96523235 13.2560719-13.25607191 13.2560719h-32.47737615c-7.29083955 0-13.2560719-5.96523235-13.25607191-13.2560719v-41.09382289zM115.64345015 627.99062914v68.26877029c0 7.29083955 5.96523235 13.2560719 13.2560719 13.2560719h82.18764579c7.29083955 0 13.2560719-5.96523235 13.25607189-13.2560719v-68.26877029c0-7.29083955-5.96523235-13.2560719-13.25607189-13.2560719H128.89952205c-7.29083955 0-13.2560719 5.96523235-13.2560719 13.2560719z m75.55960985 1.98841077c7.29083955 0 13.2560719 5.96523235 13.25607189 13.25607191v32.47737616c0 7.29083955-5.96523235 13.2560719-13.25607189 13.2560719h-41.0938229c-7.29083955 0-13.2560719-5.96523235-13.25607191-13.2560719v-32.47737616c0-7.29083955 5.96523235-13.2560719 13.25607191-13.25607191h41.0938229zM800.31956385 627.32782555v68.26877028c0 7.29083955 5.96523235 13.2560719 13.2560719 13.2560719h82.1876458c7.29083955 0 13.2560719-5.96523235 13.25607189-13.2560719v-68.26877028c0-7.29083955-5.96523235-13.2560719-13.25607189-13.25607192h-82.1876458c-7.29083955 0-13.2560719 6.62803595-13.2560719 13.25607192z m75.55960984 2.65121436c7.29083955 0 13.2560719 5.96523235 13.25607191 13.25607191v32.47737616c0 7.29083955-5.96523235 13.2560719-13.25607191 13.2560719h-41.0938229c-7.29083955 0-13.2560719-5.96523235-13.25607189-13.2560719v-32.47737616c0-7.29083955 5.96523235-13.2560719 13.25607189-13.25607191h41.0938229zM574.30353794 626.66502195v68.26877028c0 7.29083955 5.96523235 13.2560719 13.25607189 13.25607191h82.1876458c7.29083955 0 13.2560719-5.96523235 13.25607189-13.25607191v-68.26877028c0-7.29083955-5.96523235-13.2560719-13.25607189-13.2560719h-82.1876458c-7.29083955 0-13.2560719 5.96523235-13.25607189 13.2560719z m75.55960983 1.98841078c7.29083955 0 13.2560719 5.96523235 13.25607191 13.2560719v32.47737617c0 7.29083955-5.96523235 13.2560719-13.25607191 13.25607189h-41.09382288c-7.29083955 0-13.2560719-5.96523235-13.25607191-13.25607189v-32.47737617c0-7.29083955 5.96523235-13.2560719 13.25607191-13.2560719h41.09382288zM342.98508325 626.66502195v68.26877028c0 7.29083955 5.96523235 13.2560719 13.25607192 13.25607191h82.18764578c7.29083955 0 13.2560719-5.96523235 13.2560719-13.25607191v-68.26877028c0-7.29083955-5.96523235-13.2560719-13.2560719-13.2560719H356.24115517c-7.29083955 0-13.2560719 5.96523235-13.25607192 13.2560719z m75.55960985 1.98841078c7.29083955 0 13.2560719 5.96523235 13.25607189 13.2560719v32.47737617c0 7.29083955-5.96523235 13.2560719-13.25607189 13.25607189h-41.09382289c-7.29083955 0-13.2560719-5.96523235-13.25607191-13.25607189v-32.47737617c0-7.29083955 5.96523235-13.2560719 13.25607191-13.2560719h41.09382289zM128.89952205 383.41610256h82.18764579c7.29083955 0 13.2560719-5.96523235 13.25607189-13.25607189V301.89126036c0-7.29083955-5.96523235-13.2560719-13.25607189-13.2560719H128.89952205c-7.29083955 0-13.2560719 5.96523235-13.2560719 13.2560719v68.26877031c0 7.29083955 5.96523235 13.2560719 13.2560719 13.25607189z m20.54691145-15.90728629c-7.29083955 0-13.2560719-5.96523235-13.2560719-13.2560719v-32.47737616c0-7.29083955 5.96523235-13.2560719 13.2560719-13.25607189h41.09382289c7.29083955 0 13.2560719 5.96523235 13.25607191 13.25607189v32.47737616c0 7.29083955-5.96523235 13.2560719-13.25607191 13.2560719h-41.09382289zM813.57563575 383.41610256h82.1876458c7.29083955 0 13.2560719-5.96523235 13.25607189-13.25607189V301.89126036c0-7.29083955-5.96523235-13.2560719-13.25607189-13.2560719h-82.1876458c-7.29083955 0-13.2560719 5.96523235-13.2560719 13.2560719v68.26877031c0 7.29083955 5.96523235 13.2560719 13.2560719 13.25607189z m21.20971504-15.90728629c-7.29083955 0-13.2560719-5.96523235-13.25607189-13.2560719v-32.47737616c0-7.29083955 5.96523235-13.2560719 13.25607189-13.25607189h41.0938229c7.29083955 0 13.2560719 5.96523235 13.25607191 13.25607189v32.47737616c0 7.29083955-5.96523235 13.2560719-13.25607191 13.2560719h-41.0938229zM587.55960983 384.74170975h82.1876458c7.29083955 0 13.2560719-5.96523235 13.25607189-13.2560719V303.21686755c0-7.29083955-5.96523235-13.2560719-13.25607189-13.2560719h-82.1876458c-7.29083955 0-13.2560719 5.96523235-13.25607189 13.2560719v68.2687703c0 7.29083955 5.96523235 13.2560719 13.25607189 13.2560719z m21.20971506-15.90728628c-7.29083955 0-13.2560719-5.96523235-13.25607191-13.25607191v-32.47737615c0-7.29083955 5.96523235-13.2560719 13.25607191-13.25607191h41.09382288c7.29083955 0 13.2560719 5.96523235 13.25607191 13.25607191v32.47737615c0 7.29083955-5.96523235 13.2560719-13.25607191 13.25607191h-41.09382288zM356.24115517 384.74170975h82.18764578c7.29083955 0 13.2560719-5.96523235 13.2560719-13.2560719V303.21686755c0-7.29083955-5.96523235-13.2560719-13.2560719-13.2560719H356.24115517c-7.29083955 0-13.2560719 5.96523235-13.25607192 13.2560719v68.2687703c0 7.29083955 5.96523235 13.2560719 13.25607192 13.2560719z m21.20971504-15.90728628c-7.29083955 0-13.2560719-5.96523235-13.25607191-13.25607191v-32.47737615c0-7.29083955 5.96523235-13.2560719 13.25607191-13.25607191h41.09382289c7.29083955 0 13.2560719 5.96523235 13.25607189 13.25607191v32.47737615c0 7.29083955-5.96523235 13.2560719-13.25607189 13.25607191h-41.09382289z" p-id="1240"></path></svg>