<?xml version="1.0" standalone="no"?><!DOCTYPE svg PUBLIC "-//W3C//DTD SVG 1.1//EN" "http://www.w3.org/Graphics/SVG/1.1/DTD/svg11.dtd"><svg t="1558588075446" class="icon" style="" viewBox="0 0 1024 1024" version="1.1" xmlns="http://www.w3.org/2000/svg" p-id="1022" xmlns:xlink="http://www.w3.org/1999/xlink" width="200" height="200"><defs><style type="text/css"></style></defs><path d="M209.38873363 700.27764622c14.91308089-14.91308089 35.41856711-24.23375645 57.78818845-24.23375644 22.36962133 0 42.87510755 9.32067555 57.78818844 24.23375644 14.91308089 14.91308089 24.23375645 35.41856711 24.23375645 57.78818845s-9.32067555 42.87510755-24.23375645 57.78818844c-14.91308089 14.91308089-35.41856711 24.23375645-57.78818844 24.23375644-22.36962133 0-42.87510755-9.32067555-57.78818845-24.23375644-14.91308089-14.91308089-24.23375645-35.41856711-24.23375645-57.78818844 0-22.9909997 9.32067555-43.49648592 24.23375645-57.78818845z m57.78818845 16.777216c-11.18481067 0-21.74824297 4.34964859-29.20478341 11.80618903-7.45654045 7.45654045-11.80618903 17.39859437-11.80618904 29.20478342 0 11.18481067 4.34964859 21.74824297 11.80618904 29.20478341 7.45654045 7.45654045 17.39859437 11.80618903 29.20478341 11.80618903 11.18481067 0 21.74824297-4.97102697 29.2047834-11.80618903 7.45654045-7.45654045 11.80618903-17.39859437 11.80618904-29.20478341s-4.97102697-21.74824297-11.80618904-29.20478342c-7.45654045-7.45654045-18.01997275-11.80618903-29.2047834-11.80618903z m433.72210251-16.777216c14.91308089-14.91308089 35.41856711-24.23375645 57.78818844-24.23375644 22.36962133 0 42.87510755 9.32067555 57.78818845 24.23375644 14.91308089 14.91308089 24.23375645 35.41856711 24.23375644 57.78818845s-9.32067555 42.87510755-24.23375644 57.78818844c-14.91308089 14.91308089-35.41856711 24.23375645-57.78818845 24.23375644s-42.87510755-9.32067555-57.78818844-24.23375644c-14.91308089-14.91308089-24.23375645-35.41856711-24.23375644-57.78818844 0-22.9909997 9.32067555-43.49648592 24.23375644-57.78818845z m57.78818844 16.777216c-11.18481067 0-21.74824297 4.34964859-29.2047834 11.80618903-7.45654045 7.45654045-11.80618903 17.39859437-11.80618904 29.20478342 0 11.18481067 4.97102697 21.74824297 11.80618904 29.20478341 7.45654045 7.45654045 17.39859437 11.80618903 29.2047834 11.80618903s21.74824297-4.97102697 29.20478342-11.80618903c7.45654045-7.45654045 11.80618903-17.39859437 11.80618903-29.20478341s-4.34964859-21.74824297-11.80618903-29.20478342c-8.07791882-7.45654045-18.01997275-11.80618903-29.20478342-11.80618903zM212.49562548 272.14794903V251.02108445c0-41.01097245 33.554432-74.56540445 74.56540444-74.56540445h233.63826726c41.01097245 0 74.56540445 33.554432 74.56540445 74.56540445v21.12686458H567.92405333V251.02108445c0-24.23375645-19.88410785-43.49648592-44.73924266-43.49648593h-236.12378075c-24.23375645 0-43.49648592 19.26272948-43.49648592 43.49648593v21.12686458h-31.06891852z" p-id="1023"></path><path d="M651.18875497 777.32856415H374.67538015c1.24275675-6.2137837 1.86413511-12.42756741 1.8641351-19.26272948 0-7.45654045-0.62137837-14.29170252-1.8641351-21.74824297h277.13475318c-1.24275675 6.83516208-1.86413511 14.29170252-1.86413511 21.74824297-0.62137837 6.2137837 0 13.04894578 1.24275675 19.26272948z m38.52545895-320.63123912H336.14992118l176.47145719 115.57637689 177.09283555-115.57637689z m74.56540445 0l-214.37553778 139.81013334 130.48945778 85.12883674c-9.94205392 9.94205392-17.39859437 21.74824297-22.36962134 34.17581037l-144.78116028-95.07089066-144.7811603 94.44951229c-5.59240533-12.42756741-13.04894578-24.23375645-22.36962134-34.17581036l130.48945778-85.12883675L261.58451675 456.07594667H96.29787022c-11.18481067 0-20.50548622-8.69929718-20.50548622-19.88410785V319.37270518c0-11.18481067 9.32067555-20.50548622 20.50548622-20.50548621h633.80593778l190.7631597-86.99297186c9.94205392-4.97102697 22.36962133 0 27.3406483 9.94205392 1.24275675 2.48551348 1.86413511 6.2137837 1.86413511 8.69929719v205.05486223c0 11.18481067-9.32067555 20.50548622-20.50548622 20.50548622-48.46751289 0.62137837-116.81913363 0-165.28664652 0.62137836z" p-id="1024"></path></svg>